# xmcd
#
# Track frame offsets:
#	150
#	25425
#	45168
#	65092
#	83649
#	103850
#	128818
#	147405
#	165048
#
# Disc length: 2455 seconds
#
# Revision: 1
# Processed by: cddbd v1.5.2PL0 Copyright (c) Steve Scherf et al.
# Submitted via: MusicWizard 7.2.1
#
DISCID=6f099509
DTITLE=Anitha Baker - Sweet Love
DYEAR=2004
DGENRE=Pop
TTITLE0=The Best Thing Yet (You Are)
TTITLE1=Sweet Love
TTITLE2=You Bring Me Joy
TTITLE3=No One In The World
TTITLE4=Angel
TTITLE5=Good Love
TTITLE6=Lead Me Into Love
TTITLE7=Talk To Me
TTITLE8=I Apologise
EXTD=YEAR - 2004
EXTT0=
EXTT1=
EXTT2=
EXTT3=
EXTT4=
EXTT5=
EXTT6=
EXTT7=
EXTT8=
PLAYORDER=
